<svg xmlns="http://www.w3.org/2000/svg" xmlns:xlink="http://www.w3.org/1999/xlink" width="1920" height="1080" viewBox="0 0 1920 1080">
  <defs>
    <clipPath id="clip-Web_1920_1">
      <rect width="1920" height="1080"/>
    </clipPath>
  </defs>
  <g id="Web_1920_1" data-name="Web 1920 – 1" clip-path="url(#clip-Web_1920_1)">
    <rect width="1920" height="1080" fill="rgba(48,202,148,0.41)"/>
    <path id="Path_1" data-name="Path 1" d="M.164-88.245s312.643-150.25,600.258-86.71,332.536,201.1,550.2,340.871,279.905-6.941,476.426,77.705S1936.707,504.5,1936.707,504.5" transform="translate(0.5 575.5)" fill="#fff"/>
    <path id="Path_2" data-name="Path 2" d="M.164-88.245s312.643-150.25,600.258-86.71,332.536,201.1,550.2,340.871,279.905-6.941,476.426,77.705S1936.707,504.5,1936.707,504.5" transform="translate(15.5 648.5)" fill="#fff"/>
    <path id="Path_3" data-name="Path 3" d="M.164-88.245s312.643-150.25,600.258-86.71,332.536,201.1,550.2,340.871,279.905-6.941,476.426,77.705S1936.707,504.5,1936.707,504.5" transform="translate(15.5 764.5)" fill="#fff"/>
    <path id="Path_4" data-name="Path 4" d="M.164-88.245s312.643-150.25,600.258-86.71,332.536,201.1,550.2,340.871,279.905-6.941,476.426,77.705S1936.707,504.5,1936.707,504.5" transform="translate(15.5 904.5)" fill="#fff"/>
    <path id="Path_5" data-name="Path 5" d="M.164-88.245s312.643-150.25,600.258-86.71,332.536,201.1,550.2,340.871,279.905-6.941,476.426,77.705S1936.707,504.5,1936.707,504.5" transform="translate(15.5 996.5)" fill="#fff"/>
    <path id="Path_6" data-name="Path 6" d="M.164-88.245s312.643-150.25,600.258-86.71,332.536,201.1,550.2,340.871,279.905-6.941,476.426,77.705S1936.707,504.5,1936.707,504.5" transform="translate(15.5 1045.5)" fill="#fff"/>
    <path id="Path_7" data-name="Path 7" d="M.164-88.245s312.643-150.25,600.258-86.71,332.536,201.1,550.2,340.871,279.905-6.941,476.426,77.705S1936.707,504.5,1936.707,504.5" transform="translate(15.5 877.5)" fill="#fff"/>
    <path id="Path_8" data-name="Path 8" d="M.164-88.245s312.643-150.25,600.258-86.71,332.536,201.1,550.2,340.871,279.905-6.941,476.426,77.705S1936.707,504.5,1936.707,504.5" transform="translate(36.5 730.5)" fill="#fff"/>
    <path id="Path_9" data-name="Path 9" d="M.164-88.245s312.643-150.25,600.258-86.71,332.536,201.1,550.2,340.871,279.905-6.941,476.426,77.705S1936.707,504.5,1936.707,504.5" transform="translate(36.5 764.5)" fill="#fff"/>
    <path id="Path_10" data-name="Path 10" d="M.164-88.245s312.643-150.25,600.258-86.71,332.536,201.1,550.2,340.871,279.905-6.941,476.426,77.705S1936.707,504.5,1936.707,504.5" transform="translate(36.5 808.5)" fill="#fff"/>
    <path id="Path_11" data-name="Path 11" d="M.164-88.245s312.643-150.25,600.258-86.71,332.536,201.1,550.2,340.871,279.905-6.941,476.426,77.705S1936.707,504.5,1936.707,504.5" transform="translate(-188.5 780.5)" fill="#fff"/>
    <path id="Path_12" data-name="Path 12" d="M.164-88.245s312.643-150.25,600.258-86.71,332.536,201.1,550.2,340.871,279.905-6.941,476.426,77.705S1936.707,504.5,1936.707,504.5" transform="translate(-332.5 672.5)" fill="#fff"/>
    <path id="Path_13" data-name="Path 13" d="M.164-88.245s312.643-150.25,600.258-86.71,332.536,201.1,550.2,340.871,279.905-6.941,476.426,77.705S1936.707,504.5,1936.707,504.5" transform="translate(-332.5 764.5)" fill="#fff"/>
    <path id="Path_14" data-name="Path 14" d="M.164-88.245s312.643-150.25,600.258-86.71,332.536,201.1,550.2,340.871,279.905-6.941,476.426,77.705S1936.707,504.5,1936.707,504.5" transform="translate(-332.5 1078.5)" fill="#fff"/>
    <path id="Path_15" data-name="Path 15" d="M.164-88.245s312.643-150.25,600.258-86.71,332.536,201.1,550.2,340.871,279.905-6.941,476.426,77.705S1936.707,504.5,1936.707,504.5" transform="translate(-367.5 923.5)" fill="#fff"/>
    <path id="Path_16" data-name="Path 16" d="M.164-88.245s312.643-150.25,600.258-86.71,332.536,201.1,550.2,340.871,279.905-6.941,476.426,77.705S1936.707,504.5,1936.707,504.5" transform="translate(1398.5 1252.5)" fill="#fff"/>
  </g>
</svg>
